<svg xmlns="http://www.w3.org/2000/svg" version="1.1" xmlns:xlink="http://www.w3.org/1999/xlink" xmlns:svgjs="http://svgjs.dev/svgjs" width="2000" height="606" viewBox="0 0 2000 606"><g transform="matrix(1,0,0,1,-11.147552033160537,8.307670910226307)"><svg viewBox="0 0 399 121" data-background-color="#ffffff" preserveAspectRatio="xMidYMid meet" height="606" width="2000" xmlns="http://www.w3.org/2000/svg" xmlns:xlink="http://www.w3.org/1999/xlink"><g id="tight-bounds" transform="matrix(1,0,0,1,3.430404784120128,0.11132869823529745)"><svg viewBox="0 0 395.52 120.77734260352939" height="120.77734260352939" width="395.52"><g><svg viewBox="0 0 573.7456629768164 175.20094180987073" height="120.77734260352939" width="395.52"><g transform="matrix(1,0,0,1,178.22566297681644,24.21373363653062)"><svg viewBox="0 0 395.52 126.77347453680949" height="126.77347453680949" width="395.52"><g id="textblocktransform"><svg viewBox="0 0 395.52 126.77347453680949" height="126.77347453680949" width="395.52" id="textblock"><g><svg viewBox="0 0 395.52 92.58170876205284" height="92.58170876205284" width="395.52"><rect width="395.52" height="92.58170876205284" x="0" y="0" opacity="1" fill="#4d7e3e" data-fill-palette-color="tertiary"></rect><g transform="matrix(1,0,0,1,23.461705032,23.461705031999998)"><svg width="348.596589936" viewBox="-1.17 -37.99 301.2 39.45" height="45.658298698052846" data-palette-color="#ffffff"><path d="M-1.17 0L-1.17 0Q0.34-5.59 2.17-11.35 4-17.11 6.73-25.13 9.45-33.15 10.45-36.23L10.45-36.23Q10.74-36.72 10.84-36.82L10.84-36.82 14.94-36.82Q16.38-36.82 19.19-36.87 22-36.91 23.44-36.91L23.44-36.91 27.54-36.91Q27.91-36.91 28.15-36.9 28.39-36.89 28.74-36.84 29.08-36.79 29.28-36.69 29.49-36.6 29.64-36.4 29.79-36.21 29.79-35.94L29.79-35.94 41.04-0.27Q41.04 0.22 40.69 0.4 40.33 0.59 39.36 0.59L39.36 0.59 37.11 0.59Q36.13 0.59 34.2 0.61 32.28 0.63 31.3 0.63L31.3 0.63Q31.01 0.63 30.11 0.67 29.22 0.71 28.61 0.7 28 0.68 27.26 0.62 26.51 0.56 26.06 0.35 25.61 0.15 25.49-0.2L25.49-0.2 25.49-1.81Q25.24-3.03 24.63-4.05 24.02-5.08 23.34-5.08L23.34-5.08 14.94-5.08 13.67 0.1Q13.4 0.68 10.94 0.68L10.94 0.68 8.98 0.68Q7.93 0.68 5.86 0.76 3.78 0.83 2.73 0.83L2.73 0.83 2.05 0.83Q1.66 0.83 0.82 0.85-0.02 0.88-0.49 0.88L-0.49 0.88Q-0.68 0.68-1.17 0ZM17.72-23.29L15.77-14.82 16.46-13.67 18.07-13.67Q20.02-13.67 21.64-13.9 23.27-14.14 23.27-14.65L23.27-14.65 20.12-28.71Q19.68-28.71 18.93-27.05 18.19-25.39 17.72-23.29L17.72-23.29ZM42.48-32.62L42.48-32.62Q42.48-36.6 43.31-37.06L43.31-37.06Q43.55-37.01 43.99-37.01L43.99-37.01 44.77-37.01Q45.53-37.01 47.26-37.06 49-37.11 49.9-37.11L49.9-37.11Q53.37-37.11 55.5-36.83 57.64-36.55 57.91-35.79L57.91-35.79 57.61-10.6 58.15-10.6Q60.1-10.69 60.89-10.68 61.67-10.67 63.75-10.58 65.84-10.5 67.77-10.5L67.77-10.5Q69.36-10.5 70.13-10.31 70.9-10.13 70.9-9.57L70.9-9.57 70.9-0.2Q70.58 0.68 60.01 0.68L60.01 0.68 43.11 0.68Q42.53-0.17 42.53-2.05L42.53-2.05 42.53-8.98Q42.53-12.04 42.58-18.02 42.62-24 42.62-27.05L42.62-27.05Q42.62-27.61 42.55-29.54 42.48-31.47 42.48-32.62ZM73.33-32.62L73.33-32.62Q73.33-36.6 74.16-37.06L74.16-37.06Q74.41-37.01 74.85-37.01L74.85-37.01 75.63-37.01Q76.39-37.01 78.12-37.06 79.85-37.11 80.76-37.11L80.76-37.11Q84.22-37.11 86.36-36.83 88.5-36.55 88.76-35.79L88.76-35.79 88.47-10.6 89.01-10.6Q90.96-10.69 91.74-10.68 92.52-10.67 94.61-10.58 96.7-10.5 98.63-10.5L98.63-10.5Q100.21-10.5 100.98-10.31 101.75-10.13 101.75-9.57L101.75-9.57 101.75-0.2Q101.44 0.68 90.86 0.68L90.86 0.68 73.97 0.68Q73.38-0.17 73.38-2.05L73.38-2.05 73.38-8.98Q73.38-12.04 73.43-18.02 73.48-24 73.48-27.05L73.48-27.05Q73.48-27.61 73.41-29.54 73.33-31.47 73.33-32.62ZM104.14-3.42L104.14-3.42 104.14-36.04Q104.14-36.87 107.95-36.87L107.95-36.87Q108.37-36.87 109.14-36.84 109.9-36.82 110.2-36.82L110.2-36.82Q112.13-36.82 115.95-36.89 119.77-36.96 121.72-36.96L121.72-36.96Q123.06-36.96 125.71-36.91 128.36-36.87 129.83-36.87L129.83-36.87Q130.02-36.87 130.41-36.89 130.8-36.91 131-36.91L131-36.91Q131.88-36.91 132.22-36.58 132.56-36.25 132.56-35.3L132.56-35.3 132.56-26.76Q131.14-26.64 129.61-26.6 128.07-26.56 125.7-26.54 123.33-26.51 122.75-26.51L122.75-26.51 119.38-26.51Q119.38-26.05 119.35-25.17 119.33-24.29 119.33-23.83L119.33-23.83 119.33-23.49Q119.38-23.39 119.38-23.14L119.38-23.14Q124.92-23.54 128.75-23.54L128.75-23.54Q129.9-23.54 130.79-23.36 131.68-23.19 131.68-22.85L131.68-22.85 131.68-14.7Q131.68-13.62 131.27-13.26 130.85-12.89 129.97-12.89L129.97-12.89Q129.78-12.89 129.26-12.94 128.75-12.99 128.46-12.99L128.46-12.99Q123.5-12.67 119.43-12.6L119.43-12.6Q119.43-11.11 119.5-8.11 119.57-5.1 119.57-3.61L119.57-3.61 119.57-0.59Q119.57 0.12 119.43 0.35 119.28 0.59 118.69 0.68L118.69 0.68Q116.35 0.68 111.76 0.73 107.17 0.78 104.83 0.78L104.83 0.78Q104.63 0.49 104.5 0.15 104.36-0.2 104.29-0.46 104.22-0.73 104.18-1.21 104.14-1.68 104.13-1.89 104.12-2.1 104.13-2.69 104.14-3.27 104.14-3.42ZM133.14-18.36L133.14-18.36 133.14-21.04Q133.39-24.46 134.63-27.28 135.88-30.1 137.8-32.03 139.71-33.96 142.23-35.29 144.74-36.62 147.49-37.23 150.23-37.84 153.16-37.84L153.16-37.84Q154.78-37.84 156.52-37.57 158.27-37.3 160.22-36.72 162.17-36.13 163.97-35 165.76-33.86 166.93-32.32L166.93-32.32Q169.35-29.37 170.44-26.14 171.52-22.9 171.52-18.95L171.52-18.95Q171.6-10.69 167.91-5.66L167.91-5.66 166.84-4.2Q165.42-2.25 162.78-0.94 160.15 0.37 157.51 0.87 154.87 1.37 152.19 1.37L152.19 1.37Q149.04 1.37 146.38 0.73 143.72 0.1 141.79-0.98 139.86-2.05 138.34-3.59 136.83-5.13 135.87-6.84 134.9-8.54 134.28-10.55 133.66-12.55 133.4-14.45 133.14-16.36 133.14-18.36ZM152.58-28.03L152.58-28.03Q151.58-28.03 150.78-27.56 149.99-27.1 149.49-26.44 148.99-25.78 148.62-24.67 148.26-23.56 148.09-22.67 147.91-21.78 147.82-20.42 147.72-19.07 147.71-18.32 147.7-17.58 147.7-16.41L147.7-16.41Q147.7-15.28 147.78-14.27 147.87-13.26 148.15-12.12 148.43-10.99 148.88-10.14 149.33-9.3 150.12-8.73 150.92-8.15 151.94-8.11L151.94-8.11Q153.02-8.11 153.85-8.46 154.68-8.81 155.24-9.36 155.8-9.91 156.19-10.84 156.58-11.77 156.79-12.62 157-13.48 157.11-14.75 157.22-16.02 157.24-16.93 157.27-17.85 157.27-19.24L157.27-19.24Q157.27-20.26 157.2-21.14 157.14-22.02 157-23.1 156.85-24.17 156.51-24.99 156.17-25.81 155.68-26.53 155.19-27.25 154.4-27.64 153.6-28.03 152.58-28.03ZM210.58 0.1L210.58 0.1Q210.05 0.63 208.32 0.73 206.6 0.83 204.09 0.68 201.57 0.54 201.4 0.54L201.4 0.54Q199.74 0.54 199.01 0.49L199.01 0.49 196.57 0.49Q196.03 0.32 195.67-1.11 195.3-2.54 194.95-5.21 194.59-7.89 194.57-8.06L194.57-8.06Q194.47-10.47 193.79-11.24 193.1-12.01 191.3-12.01L191.3-12.01 190.22-12.01 190.22-0.1Q190.17 0.2 189.71 0.39 189.25 0.59 188.38 0.65 187.51 0.71 186.84 0.72 186.17 0.73 185.07 0.71 183.97 0.68 183.73 0.68L183.73 0.68 180.21 0.68Q177.23 0.68 175.72 0.73L175.72 0.73Q175.38 0.59 175.04 0.39L175.04 0.39 175.04-36.04Q175.04-36.72 176.99-36.72L176.99-36.72 198.28-36.72Q203.82-36.57 206.71-34.08 209.61-31.59 209.61-27.05L209.61-27.05Q209.61-21.14 203.65-18.41L203.65-18.41Q204.75-18.07 205.63-17.46 206.51-16.85 207.09-16.15 207.68-15.45 208.12-14.48 208.56-13.5 208.8-12.65 209.05-11.79 209.23-10.62 209.41-9.45 209.48-8.59 209.56-7.74 209.67-6.56 209.78-5.37 209.85-4.69L209.85-4.69 209.85-2.54Q209.92-2.15 210.3-1.44 210.68-0.73 210.78-0.39L210.78-0.39Q210.78 0.1 210.58 0.1ZM190.08-26.37L190.08-26.37Q190.08-24.9 190.1-24.19 190.12-23.49 190.37-22.34 190.61-21.19 191.1-20.7L191.1-20.7Q192.13-20.7 193.04-20.92 193.96-21.14 194.81-21.63 195.67-22.12 196.17-23.08 196.67-24.05 196.67-25.39L196.67-25.39Q196.67-26.15 196.4-26.72 196.13-27.29 195.62-27.64 195.1-27.98 194.6-28.19 194.1-28.39 193.38-28.48 192.66-28.56 192.25-28.59 191.83-28.61 191.25-28.61L191.25-28.61 190.66-28.61Q190.3-28.44 190.19-27.93 190.08-27.42 190.08-26.37ZM262.24-9.13L262.24-9.13Q262.24-8.69 262.29-7.78 262.34-6.86 262.36-6.03 262.39-5.2 262.4-4.19 262.41-3.17 262.33-2.36 262.24-1.54 262.07-0.82 261.9-0.1 261.55 0.29 261.19 0.68 260.68 0.68L260.68 0.68 249.55 0.68Q248.37-0.22 248.37-6.05L248.37-6.05Q248.37-8.18 248.4-11.17 248.42-14.16 248.42-15.43L248.42-15.43 248.42-17.14Q248.42-17.36 248.39-17.98 248.35-18.6 248.37-18.95L248.37-18.95Q247.4-15.41 245.98-8.81 244.57-2.22 244.03 0L244.03 0Q243.78 0.68 241.78 0.68L241.78 0.68 233.14 0.68Q231.55 0.68 231.28-0.15L231.28-0.15 228.94-10.35Q228.62-11.91 228.24-13.6 227.87-15.28 227.35-17.43 226.84-19.58 226.6-20.61L226.6-20.61Q226.3-12.79 226.3-8.69L226.3-8.69 226.3-4.39Q226.3-1.51 226.35-0.05L226.35-0.05Q226.21 0.49 225.82 0.49L225.82 0.49 223.52 0.49Q222.08 0.49 219.3 0.51 216.51 0.54 215.07 0.54L215.07 0.54Q213.75 0.54 213.75 0.1L213.75 0.1 213.75-36.13Q213.75-36.35 213.86-36.51 213.97-36.67 214.21-36.76 214.44-36.84 214.66-36.89 214.88-36.94 215.22-36.95 215.56-36.96 215.78-36.98 216-36.99 216.34-36.98 216.68-36.96 216.78-36.96L216.78-36.96 219.66-36.96Q226.62-36.96 229.46-36.77 232.31-36.57 233.82-36.57L233.82-36.57Q234.41-33.3 235.68-26.86L235.68-26.86 237.53-17.14 241.44-36.87Q241.44-36.87 241.64-36.82 241.83-36.77 241.93-36.77L241.93-36.77Q244.54-36.77 249.64-36.84 254.75-36.91 257.36-36.91L257.36-36.91 260.97-36.91Q261.65-36.84 261.65-35.55L261.65-35.55Q262.19-11.89 262.24-9.13ZM282.06 1.46L282.06 1.46Q279.18 1.34 276.89 0.96 274.59 0.59 272.46-0.26 270.32-1.1 268.87-2.38 267.41-3.66 266.45-5.66 265.49-7.67 265.27-10.3L265.27-10.3Q265.27-10.77 265.75-10.84L265.75-10.84Q265.9-10.79 266.24-10.79L266.24-10.79Q268.27-10.79 272.39-10.89 276.52-10.99 278.55-10.99L278.55-10.99Q279.06-10.99 279.35-10.66 279.65-10.33 279.83-9.85 280.01-9.38 280.27-8.9 280.52-8.42 281.15-8.09 281.77-7.76 282.75-7.76L282.75-7.76Q283.94-7.76 284.86-8.44 285.77-9.11 285.77-10.25L285.77-10.25Q285.77-11.01 284.99-11.65 284.21-12.28 282.93-12.68 281.65-13.09 280.49-13.37 279.33-13.65 278.11-13.85 276.89-14.06 276.69-14.11L276.69-14.11Q270.76-15.72 268.16-18.12 265.56-20.51 265.56-24.66L265.56-24.66Q265.56-27.59 266.63-29.92 267.71-32.25 269.44-33.73 271.17-35.21 273.54-36.19 275.91-37.18 278.33-37.59 280.74-37.99 283.33-37.99L283.33-37.99Q290.19-37.99 294.27-35.45L294.27-35.45Q295.76-33.96 296.45-33.19 297.15-32.42 297.8-31.4 298.44-30.37 298.7-29.38 298.96-28.39 299.05-26.95L299.05-26.95 298.18-26.07Q293.17-25.88 286.95-25.88L286.95-25.88Q286.16-25.88 285.69-26.05 285.21-26.22 285.05-26.49 284.89-26.76 284.74-27.05 284.58-27.34 284.44-27.61 284.31-27.88 283.88-28.05 283.45-28.22 282.75-28.22L282.75-28.22Q282.55-28.22 282.12-28.15 281.7-28.08 281.12-27.92 280.55-27.76 280.13-27.43 279.72-27.1 279.72-26.66L279.72-26.66Q279.72-26.12 280.27-25.68 280.82-25.24 281.43-25.05 282.04-24.85 282.94-24.62 283.84-24.39 284.06-24.32L284.06-24.32Q289.39-22.97 290.41-22.66L290.41-22.66Q295.76-20.97 297.98-18.24L297.98-18.24Q300.03-15.7 300.03-11.87L300.03-11.87Q300.03-9.55 299.43-7.64 298.84-5.74 297.86-4.42 296.88-3.1 295.42-2.08 293.95-1.05 292.45-0.44 290.95 0.17 289.05 0.59 287.14 1 285.54 1.18 283.94 1.37 282.06 1.46Z" opacity="1" transform="matrix(1,0,0,1,0,0)" fill="#ffffff" class="wordmark-text-0" data-fill-palette-color="quaternary" id="text-0"></path></svg></g></svg></g><g transform="matrix(1,0,0,1,0,104.31256127805284)"><svg viewBox="0 0 395.52 22.460913258756648" height="22.460913258756648" width="395.52"><g transform="matrix(1,0,0,1,0,0)"><svg width="395.52" viewBox="1.25 -35.05 817.86 46.449999999999996" height="22.460913258756648" data-palette-color="#4d7e3e"><path d="M9.9-30.6L1.25-30.6 1.25-35 23.25-35 23.25-30.6 14.6-30.6 14.6 0 9.9 0 9.9-30.6ZM31.15 0L26.75 0 26.75-13.65Q26.75-19.4 28.9-21.6L28.9-21.6Q29.95-22.7 31.45-23.25 32.95-23.8 34.07-23.9 35.2-24 37.15-24L37.15-24 41.55-24 41.55-19.8 36.25-19.8Q35.25-19.8 34.7-19.75 34.15-19.7 33.4-19.4 32.65-19.1 32.1-18.45L32.1-18.45Q31.15-17.25 31.15-13.65L31.15-13.65 31.15 0ZM58.15-14.1L58.15-14.1 58.15-9.6Q56.25-11.05 53.5-11.05L53.5-11.05Q51.15-11.05 49.84-10.13 48.55-9.2 48.55-7.5L48.55-7.5Q48.55-4.2 53.45-4.2L53.45-4.2 60.05-4.2 60.05-13.75Q60.05-19.8 54.15-19.8L54.15-19.8 46.15-19.8 46.15-24 54.4-24Q59.25-24 61.84-21.6 64.45-19.2 64.45-14.7L64.45-14.7 64.45 0 53.3 0Q49.05 0 46.55-1.9 44.05-3.8 44.05-7.45 44.05-11.1 46.7-13 49.34-14.9 53.34-14.9L53.34-14.9Q55.59-14.9 58.15-14.1ZM70.19 0L70.19-24 78.84-24Q84.39-24 86.79-22.35L86.79-22.35Q88.94-20.9 89.52-18.88 90.09-16.85 90.09-13.55L90.09-13.55 90.09 0 85.69 0 85.69-13.5Q85.69-14.4 85.64-15.03 85.59-15.65 85.29-16.63 84.99-17.6 84.44-18.23 83.89-18.85 82.84-19.33 81.79-19.8 80.29-19.8L80.29-19.8 74.59-19.8 74.59 0 70.19 0ZM103.89-24L112.74-24 112.74-19.8 103.89-19.8Q102.44-19.8 101.39-19.25 100.34-18.7 100.34-17.7L100.34-17.7Q100.34-17.1 100.59-16.63 100.84-16.15 101.17-15.85 101.49-15.55 102.17-15.23 102.84-14.9 103.22-14.78 103.59-14.65 106.39-13.75 109.19-12.85 110.54-12.25 111.89-11.65 112.62-10.63 113.34-9.6 113.54-8.63 113.74-7.65 113.74-6.7L113.74-6.7Q113.74 0 104.54 0L104.54 0 95.89 0 95.89-4.2 104.54-4.2Q109.24-4.2 109.24-6.7L109.24-6.7Q109.24-7.9 107.87-8.7 106.49-9.5 104.52-10.05 102.54-10.6 100.57-11.33 98.59-12.05 97.22-13.68 95.84-15.3 95.84-17.7L95.84-17.7Q95.84-20.75 98.19-22.38 100.54-24 103.89-24L103.89-24ZM130.54-24L130.54-19.8 124.79-19.8 124.79 0 120.29 0 120.29-19.8 116.89-19.8 118.89-24 120.29-24Q120.29-29.1 123.74-32.08 127.19-35.05 132.54-35.05L132.54-35.05 132.54-30.85Q124.79-30.85 124.79-24L124.79-24 130.54-24ZM137.29-20.85L137.29-20.85Q140.79-24.5 146.04-24.5L146.04-24.5Q148.59-24.5 150.81-23.53 153.04-22.55 154.71-20.85 156.39-19.15 157.34-16.88 158.29-14.6 158.29-12L158.29-12Q158.29-9.4 157.36-7.13 156.44-4.85 154.79-3.15 153.14-1.45 150.89-0.48 148.64 0.5 146.04 0.5L146.04 0.5Q143.39 0.5 141.16-0.48 138.94-1.45 137.29-3.15 135.64-4.85 134.71-7.13 133.79-9.4 133.79-12L133.79-12Q133.79-17.3 137.29-20.85ZM146.04-20.3L146.04-20.3Q142.54-20.3 140.41-18 138.29-15.7 138.29-12 138.29-8.3 140.41-6 142.54-3.7 146.04-3.7L146.04-3.7Q149.59-3.7 151.69-6.03 153.79-8.35 153.79-12 153.79-15.65 151.69-17.98 149.59-20.3 146.04-20.3ZM167.18 0L162.78 0 162.78-13.65Q162.78-19.4 164.93-21.6L164.93-21.6Q165.98-22.7 167.48-23.25 168.98-23.8 170.11-23.9 171.23-24 173.18-24L173.18-24 177.58-24 177.58-19.8 172.28-19.8Q171.28-19.8 170.73-19.75 170.18-19.7 169.43-19.4 168.68-19.1 168.13-18.45L168.13-18.45Q167.18-17.25 167.18-13.65L167.18-13.65 167.18 0ZM181.08 0L181.08-24 203.13-24Q206.68-24 208.78-22.65L208.78-22.65Q210.93-21.3 211.61-19.15 212.28-17 212.28-14L212.28-14 212.28 0 207.88 0 207.88-14Q207.88-17.9 205.53-19.15L205.53-19.15Q204.33-19.8 200.68-19.8L200.68-19.8 198.63-19.8 198.63 0 194.23 0 194.23-19.8 185.48-19.8 185.48 0 181.08 0ZM224.78-24L224.78 0 220.38 0 220.38-19.8 216.28-19.8 218.28-24 224.78-24ZM220.18-29L220.18-29Q219.53-29.85 219.53-30.85 219.53-31.85 220.18-32.68 220.83-33.5 222.18-33.5 223.53-33.5 224.18-32.68 224.83-31.85 224.83-30.85 224.83-29.85 224.18-29.03 223.53-28.2 222.18-28.2 220.83-28.2 220.18-29ZM231.73 0L231.73-24 240.38-24Q245.93-24 248.33-22.35L248.33-22.35Q250.48-20.9 251.05-18.88 251.63-16.85 251.63-13.55L251.63-13.55 251.63 0 247.23 0 247.23-13.5Q247.23-14.4 247.18-15.03 247.13-15.65 246.83-16.63 246.53-17.6 245.98-18.23 245.43-18.85 244.38-19.33 243.33-19.8 241.83-19.8L241.83-19.8 236.13-19.8 236.13 0 231.73 0ZM268.77 0L268.77 0Q263.87 0 260.37-3.3 256.87-6.6 256.87-11.75L256.87-11.75Q256.87-16.95 260.4-20.48 263.92-24 269.12-24L269.12-24 280.87-24 280.87-0.7Q280.87 1.55 280.3 3.35 279.72 5.15 278.67 6.4 277.62 7.65 276.77 8.35 275.92 9.05 274.72 9.8L274.72 9.8Q271.62 11.4 267.17 11.4L267.17 11.4 261.57 11.4 261.57 7.2 266.72 7.2Q271.12 7.2 272.97 6.1L272.97 6.1Q276.37 4.2 276.37-0.2L276.37-0.2 276.37-19.8 269.12-19.8Q265.57-19.8 263.47-17.6 261.37-15.4 261.37-11.75L261.37-11.75Q261.37-8.25 263.55-6.23 265.72-4.2 268.77-4.2L268.77-4.2Q272.07-4.2 274.57-6L274.57-6 274.57-1.5Q271.87 0 268.77 0ZM305.67-30.6L297.02-30.6 297.02-35 319.02-35 319.02-30.6 310.37-30.6 310.37 0 305.67 0 305.67-30.6ZM335.02-24.5L335.02-24.5Q343.52-24.15 343.52-17.45L343.52-17.45Q343.52-9.1 332.57-9.1L332.57-9.1 330.52-9.1 330.52-12.95 332.92-12.95Q336.27-12.95 337.57-13.98 338.87-15 338.87-17.4L338.87-17.4Q338.87-18.95 337.72-19.73 336.57-20.5 334.77-20.5L334.77-20.5Q331.22-20.5 329.19-18 327.17-15.5 327.17-12L327.17-12Q327.17-8.3 329.34-6 331.52-3.7 335.02-3.7L335.02-3.7Q338.17-3.7 340.17-5.25L340.17-5.25 343.17-2.3Q339.72 0.5 335.02 0.5L335.02 0.5Q329.32 0.5 325.92-2.85 322.52-6.2 322.52-11.5L322.52-11.5Q322.52-17.4 325.87-21.05 329.22-24.7 335.02-24.5ZM364.91-5.25L364.91-5.25 367.91-2.3Q364.46 0.5 360.01 0.5L360.01 0.5Q354.46 0.5 351.11-3.08 347.76-6.65 347.76-12L347.76-12Q347.76-17.25 351.29-20.88 354.81-24.5 360.01-24.5L360.01-24.5Q364.46-24.5 367.91-21.7L367.91-21.7 364.96-18.7Q362.86-20.3 360.01-20.3L360.01-20.3Q356.56-20.3 354.54-18.03 352.51-15.75 352.51-12 352.51-8.25 354.54-5.98 356.56-3.7 360.01-3.7L360.01-3.7Q362.91-3.7 364.91-5.25ZM372.16-35L376.56-35 376.56-24 380.81-24Q386.36-24 388.76-22.35L388.76-22.35Q390.91-20.9 391.49-18.88 392.06-16.85 392.06-13.55L392.06-13.55 392.06 0 387.66 0 387.66-13.5Q387.66-14.4 387.61-15.03 387.56-15.65 387.26-16.63 386.96-17.6 386.41-18.23 385.86-18.85 384.81-19.33 383.76-19.8 382.26-19.8L382.26-19.8 376.56-19.8 376.56 0 372.16 0 372.16-35ZM399.26 7.75L399.26 7.75 396.76 6.15Q398.66 2.45 398.96 0L398.96 0 395.56 0 397.56-4.2 404.11-4.2Q404.11 2.8 399.26 7.75ZM440.65-4.4L440.65 0 420.75 0 420.75-26.65Q420.75-30.35 423.1-32.6L423.1-32.6Q424.7-34.1 426.7-34.55 428.7-35 431.6-35L431.6-35 440.65-35 440.65-30.6 430.95-30.6Q425.45-30.6 425.45-26L425.45-26 425.45-20.3 437-20.3 437-15.9 425.45-15.9 425.45-4.4 440.65-4.4ZM446.15 0L446.15-24 468.2-24Q471.75-24 473.85-22.65L473.85-22.65Q476-21.3 476.67-19.15 477.35-17 477.35-14L477.35-14 477.35 0 472.95 0 472.95-14Q472.95-17.9 470.6-19.15L470.6-19.15Q469.4-19.8 465.75-19.8L465.75-19.8 463.7-19.8 463.7 0 459.3 0 459.3-19.8 450.55-19.8 450.55 0 446.15 0ZM487.85 11.4L483.35 11.4 483.35-12Q483.35-14.6 484.3-16.9 485.25-19.2 486.9-20.88 488.55-22.55 490.8-23.53 493.05-24.5 495.6-24.5L495.6-24.5Q498.15-24.5 500.37-23.53 502.6-22.55 504.27-20.85 505.95-19.15 506.9-16.88 507.85-14.6 507.85-12L507.85-12Q507.85-9.4 506.92-7.13 506-4.85 504.35-3.15 502.7-1.45 500.45-0.48 498.2 0.5 495.6 0.5L495.6 0.5Q492.4 0.5 489.65-1L489.65-1 489.65-5.5Q492.1-3.7 495.45-3.7L495.45-3.7Q497.25-3.7 498.72-4.33 500.2-4.95 501.22-6.05 502.25-7.15 502.8-8.68 503.35-10.2 503.35-12L503.35-12Q503.35-13.8 502.8-15.33 502.25-16.85 501.25-17.95 500.25-19.05 498.82-19.68 497.4-20.3 495.6-20.3L495.6-20.3Q493.85-20.3 492.42-19.7 491-19.1 489.97-18 488.95-16.9 488.4-15.38 487.85-13.85 487.85-12L487.85-12 487.85 11.4ZM515.85-20.85L515.85-20.85Q519.35-24.5 524.6-24.5L524.6-24.5Q527.14-24.5 529.37-23.53 531.6-22.55 533.27-20.85 534.94-19.15 535.89-16.88 536.85-14.6 536.85-12L536.85-12Q536.85-9.4 535.92-7.13 535-4.85 533.35-3.15 531.69-1.45 529.44-0.48 527.19 0.5 524.6 0.5L524.6 0.5Q521.94 0.5 519.72-0.48 517.5-1.45 515.85-3.15 514.19-4.85 513.27-7.13 512.35-9.4 512.35-12L512.35-12Q512.35-17.3 515.85-20.85ZM524.6-20.3L524.6-20.3Q521.1-20.3 518.97-18 516.85-15.7 516.85-12 516.85-8.3 518.97-6 521.1-3.7 524.6-3.7L524.6-3.7Q528.14-3.7 530.25-6.03 532.35-8.35 532.35-12 532.35-15.65 530.25-17.98 528.14-20.3 524.6-20.3ZM563.14 0.5L563.14 0.5Q559.44-2.35 558.19-5.25 556.94-8.15 556.34-13.8L556.34-13.8 555.84-13.8Q555.24-8.15 553.99-5.25 552.74-2.35 549.04 0.5L549.04 0.5Q545.59-1.2 543.57-5.65 541.54-10.1 541.19-16.65L541.19-16.65 540.84-24 545.29-24 545.69-16.85Q546.14-8.65 548.94-4.95L548.94-4.95Q549.69-5.8 550.34-6.85 550.99-7.9 551.44-9.18 551.89-10.45 552.22-11.43 552.54-12.4 552.82-13.93 553.09-15.45 553.19-16.15 553.29-16.85 553.47-18.4 553.64-19.95 553.69-20.15L553.69-20.15 558.49-20.15Q558.54-19.95 558.72-18.4 558.89-16.85 558.99-16.15 559.09-15.45 559.37-13.93 559.64-12.4 559.97-11.43 560.29-10.45 560.74-9.18 561.19-7.9 561.84-6.85 562.49-5.8 563.24-4.95L563.24-4.95Q566.04-8.65 566.49-16.85L566.49-16.85 566.89-24 571.34-24 570.99-16.65Q570.64-10.1 568.62-5.65 566.59-1.2 563.14 0.5ZM587.84-24.5L587.84-24.5Q596.34-24.15 596.34-17.45L596.34-17.45Q596.34-9.1 585.39-9.1L585.39-9.1 583.34-9.1 583.34-12.95 585.74-12.95Q589.09-12.95 590.39-13.98 591.69-15 591.69-17.4L591.69-17.4Q591.69-18.95 590.54-19.73 589.39-20.5 587.59-20.5L587.59-20.5Q584.04-20.5 582.01-18 579.99-15.5 579.99-12L579.99-12Q579.99-8.3 582.16-6 584.34-3.7 587.84-3.7L587.84-3.7Q590.99-3.7 592.99-5.25L592.99-5.25 595.99-2.3Q592.54 0.5 587.84 0.5L587.84 0.5Q582.14 0.5 578.74-2.85 575.34-6.2 575.34-11.5L575.34-11.5Q575.34-17.4 578.69-21.05 582.04-24.7 587.84-24.5ZM604.99 0L600.59 0 600.59-13.65Q600.59-19.4 602.74-21.6L602.74-21.6Q603.79-22.7 605.29-23.25 606.79-23.8 607.91-23.9 609.04-24 610.99-24L610.99-24 615.39-24 615.39-19.8 610.09-19.8Q609.09-19.8 608.54-19.75 607.99-19.7 607.24-19.4 606.49-19.1 605.94-18.45L605.94-18.45Q604.99-17.25 604.99-13.65L604.99-13.65 604.99 0ZM625.13-24L625.13 0 620.73 0 620.73-19.8 616.63-19.8 618.63-24 625.13-24ZM620.53-29L620.53-29Q619.88-29.85 619.88-30.85 619.88-31.85 620.53-32.68 621.18-33.5 622.53-33.5 623.88-33.5 624.53-32.68 625.18-31.85 625.18-30.85 625.18-29.85 624.53-29.03 623.88-28.2 622.53-28.2 621.18-28.2 620.53-29ZM632.08 0L632.08-24 640.73-24Q646.28-24 648.68-22.35L648.68-22.35Q650.83-20.9 651.41-18.88 651.98-16.85 651.98-13.55L651.98-13.55 651.98 0 647.58 0 647.58-13.5Q647.58-14.4 647.53-15.03 647.48-15.65 647.18-16.63 646.88-17.6 646.33-18.23 645.78-18.85 644.73-19.33 643.68-19.8 642.18-19.8L642.18-19.8 636.48-19.8 636.48 0 632.08 0ZM669.13 0L669.13 0Q664.23 0 660.73-3.3 657.23-6.6 657.23-11.75L657.23-11.75Q657.23-16.95 660.75-20.48 664.28-24 669.48-24L669.48-24 681.23-24 681.23-0.7Q681.23 1.55 680.65 3.35 680.08 5.15 679.03 6.4 677.98 7.65 677.13 8.35 676.28 9.05 675.08 9.8L675.08 9.8Q671.98 11.4 667.53 11.4L667.53 11.4 661.93 11.4 661.93 7.2 667.08 7.2Q671.48 7.2 673.33 6.1L673.33 6.1Q676.73 4.2 676.73-0.2L676.73-0.2 676.73-19.8 669.48-19.8Q665.93-19.8 663.83-17.6 661.73-15.4 661.73-11.75L661.73-11.75Q661.73-8.25 663.9-6.23 666.08-4.2 669.13-4.2L669.13-4.2Q672.43-4.2 674.93-6L674.93-6 674.93-1.5Q672.23 0 669.13 0ZM703.57-12.8L703.57 0 699.12 0 699.12-22Q699.12-27.4 702.6-31.2 706.07-35 711.57-35L711.57-35 723.02-35 723.02 0 718.32 0 718.32-30.6 711.57-30.6Q707.92-30.6 705.75-28.45 703.57-26.3 703.57-21.6L703.57-21.6 703.57-17.35Q706.37-20.3 711.57-20.3L711.57-20.3 716.12-20.3 716.12-15.9 711.57-15.9Q708.67-15.9 706.85-15.2 705.02-14.5 703.57-12.8L703.57-12.8ZM741.32-24L741.32-19.8 735.57-19.8 735.57 0 731.07 0 731.07-19.8 727.67-19.8 729.67-24 731.07-24Q731.07-29.1 734.52-32.08 737.97-35.05 743.32-35.05L743.32-35.05 743.32-30.85Q735.57-30.85 735.57-24L735.57-24 741.32-24ZM748.97 0L744.57 0 744.57-13.65Q744.57-19.4 746.72-21.6L746.72-21.6Q747.77-22.7 749.27-23.25 750.77-23.8 751.89-23.9 753.02-24 754.97-24L754.97-24 759.37-24 759.37-19.8 754.07-19.8Q753.07-19.8 752.52-19.75 751.97-19.7 751.22-19.4 750.47-19.1 749.92-18.45L749.92-18.45Q748.97-17.25 748.97-13.65L748.97-13.65 748.97 0ZM769.12-24L769.12 0 764.72 0 764.72-19.8 760.62-19.8 762.62-24 769.12-24ZM764.52-29L764.52-29Q763.87-29.85 763.87-30.85 763.87-31.85 764.52-32.68 765.17-33.5 766.52-33.5 767.87-33.5 768.52-32.68 769.17-31.85 769.17-30.85 769.17-29.85 768.52-29.03 767.87-28.2 766.52-28.2 765.17-28.2 764.52-29ZM792.21-5.25L792.21-5.25 795.21-2.3Q791.76 0.5 787.31 0.5L787.31 0.5Q781.76 0.5 778.41-3.08 775.06-6.65 775.06-12L775.06-12Q775.06-17.25 778.59-20.88 782.11-24.5 787.31-24.5L787.31-24.5Q791.76-24.5 795.21-21.7L795.21-21.7 792.26-18.7Q790.16-20.3 787.31-20.3L787.31-20.3Q783.86-20.3 781.84-18.03 779.81-15.75 779.81-12 779.81-8.25 781.84-5.98 783.86-3.7 787.31-3.7L787.31-3.7Q790.21-3.7 792.21-5.25ZM812.81-14.1L812.81-14.1 812.81-9.6Q810.91-11.05 808.16-11.05L808.16-11.05Q805.81-11.05 804.51-10.13 803.21-9.2 803.21-7.5L803.21-7.5Q803.21-4.2 808.11-4.2L808.11-4.2 814.71-4.2 814.71-13.75Q814.71-19.8 808.81-19.8L808.81-19.8 800.81-19.8 800.81-24 809.06-24Q813.91-24 816.51-21.6 819.11-19.2 819.11-14.7L819.11-14.7 819.11 0 807.96 0Q803.71 0 801.21-1.9 798.71-3.8 798.71-7.45 798.71-11.1 801.36-13 804.01-14.9 808.01-14.9L808.01-14.9Q810.26-14.9 812.81-14.1Z" opacity="1" transform="matrix(1,0,0,1,0,0)" fill="#4d7e3e" class="slogan-text-1" data-fill-palette-color="secondary" id="text-1"></path></svg></g></svg></g></svg></g></svg></g><g><svg viewBox="0 0 166.49481046081644 175.20094180987073" height="175.20094180987073" width="166.49481046081644"><g><svg xmlns="http://www.w3.org/2000/svg" data-name="Layer 1" viewBox="7.234859996483524 5.000011926895535 85.52767362519302 89.99997614620894" x="0" y="0" height="175.20094180987073" width="166.49481046081644" class="icon-icon-0" data-fill-palette-color="accent" id="icon-0"><path d="M48.489 5.483l25.537 14.743L46.379 47.875 34.283 35.779A10.193 10.193 0 1 0 19.867 50.193L39.172 69.497a10.193 10.193 0 0 0 14.414 0L86.142 36.941V70.699a3.601 3.601 0 0 1-1.801 3.119L48.489 94.517a3.601 3.601 0 0 1-3.601 0L9.036 73.818A3.601 3.601 0 0 1 7.235 70.699V29.301a3.602 3.602 0 0 1 1.801-3.119L44.888 5.483A3.601 3.601 0 0 1 48.489 5.483ZM31.079 38.982a5.663 5.663 0 0 0-8.008 8.008L42.375 66.294a5.663 5.663 0 0 0 8.008 0L91.107 25.569a5.663 5.663 0 0 0-8.008-8.008L46.379 54.281Z" fill="#4d7e3e" data-fill-palette-color="accent"></path></svg></g></svg></g></svg></g><defs></defs></svg><rect width="395.52" height="120.77734260352939" fill="none" stroke="none" visibility="hidden"></rect></g></svg></g></svg>